<svg width="185" height="119" viewBox="0 0 185 119" fill="none" xmlns="http://www.w3.org/2000/svg">
<path fill-rule="evenodd" clip-rule="evenodd" d="M179.253 114.121L28.1889 116.105L54.4049 105.661L156.441 103.378L93.1886 80.626L4.81513 117C4.81513 117 -3.963 107.541 5.11119 102.185C29.8617 87.5935 69.6667 60.1115 69.6667 60.1115L79.5995 42.208L86.8085 42.6406C87.9258 36.8144 90.3793 31.3322 93.9731 26.6319C97.511 21.7979 98.8729 12.8462 90.4352 12.8462C86.6013 12.8462 84.8397 13.8756 83.0338 16.4567C81.9253 18.2743 80.9363 20.1632 80.0732 22.1113L73.4711 19.8435C73.4711 19.8435 74.152 12.8163 75.4103 10.3098C77.8083 5.59524 81.9384 1 90.8201 1C101.937 1 108.85 8.19126 108.85 19.7689C108.85 25.6174 106.037 29.6009 103.314 33.4352C101.02 36.3949 99.3524 39.7969 98.414 43.4314L106.215 43.8939L117.347 60.3055C117.347 60.3055 149.262 79.88 180.156 99.0965C189.304 104.676 179.253 114.121 179.253 114.121Z" fill="#F0F0F0" stroke="#592985" stroke-width="2"/>
</svg>
